<svg width="31" height="34" viewBox="0 0 31 34" fill="none" xmlns="http://www.w3.org/2000/svg">
<g clip-path="url(#clip0_1_5147)">
<path d="M30.7058 27.0933C30.5838 20.2307 30.4727 13.2535 30.3653 6.50451L30.3405 4.95709C30.3327 4.46889 30.3325 3.98047 30.3323 3.49248C30.3323 2.90925 30.3323 2.3064 30.3179 1.71249C30.2869 0.359901 29.9322 0.277285 28.7068 0.199914C27.2735 0.108811 26.2684 0.766587 25.5534 1.3496C23.9833 2.62984 22.4488 3.93644 20.9919 5.2328C17.9875 7.90768 14.9974 11.0034 11.5812 14.9751L11.4643 15.1129C11.0781 15.5705 10.7442 15.9676 10.1388 15.9317C10.0921 15.929 10.0458 15.9406 10.0061 15.9649C9.96644 15.9892 9.93541 16.0251 9.91735 16.0675C9.52276 16.9785 9.88413 17.6031 10.2896 18.0944C10.4815 18.3269 10.6734 18.5611 10.8653 18.797C11.6311 19.7753 12.4538 20.7091 13.3291 21.5938C15.1176 23.3319 17.0086 24.9746 18.6213 26.3522C21.1053 28.4729 23.5787 30.4922 25.6708 32.1878C26.3384 32.7658 27.0822 33.2525 27.8822 33.6348C28.1694 33.7621 28.4807 33.8288 28.7958 33.8309C29.2065 33.8318 29.6073 33.7076 29.9439 33.4757C30.2665 33.2438 30.5229 32.9336 30.6879 32.5753C30.8529 32.2173 30.9211 31.823 30.8856 31.4313C30.7882 29.8368 30.7293 28.4169 30.7058 27.0933ZM27.6926 4.0125C27.6884 12.2728 27.6003 20.1204 27.4238 27.9705C26.7285 27.4143 26.0485 26.864 25.3774 26.3209C23.6002 24.8824 21.9215 23.5246 20.1677 22.2197C18.3934 20.8994 16.5317 19.6274 14.7312 18.3973C14.0144 17.9078 13.2973 17.4158 12.58 16.9214C12.7684 16.7906 12.9571 16.6606 13.1462 16.5312C16.0164 14.5656 18.2229 12.832 20.0905 11.0749C22.0849 9.19838 24.1225 7.30004 26.093 5.46404L27.093 4.53253C27.2746 4.36318 27.4679 4.20103 27.6909 4.01316L27.6926 4.0125Z" fill="#F7EEE7"/>
<path d="M3.80195 8.78733C3.76298 7.18279 3.63829 5.55626 3.51762 3.98355C3.47776 3.46308 3.4379 2.9426 3.40092 2.42236C3.36547 1.99865 3.28618 1.57963 3.16424 1.17178C3.10381 0.902332 2.94859 0.662551 2.72601 0.494816C2.50341 0.32708 2.22773 0.24217 1.9477 0.255079H1.94127C1.65878 0.238061 1.37963 0.322543 1.15564 0.492822C0.931659 0.663101 0.778067 0.907613 0.72341 1.18093C0.562513 1.84677 0.466717 2.52623 0.437324 3.21002C0.355396 5.88011 0.292975 8.5511 0.242711 10.697L0.198408 12.5295C0.198187 12.5332 0.198187 12.5369 0.198408 12.5406C0.235607 14.0144 0.258647 15.3489 0.281011 16.6394C0.327954 19.3435 0.368252 21.679 0.522145 24.008C0.647695 25.9103 0.914968 27.8308 1.17338 29.6886C1.29383 30.5552 1.41871 31.4512 1.52766 32.3326C1.59873 32.9084 1.87396 33.2002 2.34692 33.2002H2.35691C2.69414 33.1972 3.11264 33.0442 3.19214 32.3326C3.28337 31.5176 3.39873 30.6877 3.51033 29.8852C3.79329 28.1181 3.96568 26.3355 4.02648 24.5476C4.08383 19.9973 3.96711 15.3707 3.85419 10.8967L3.80195 8.78733Z" fill="#F7EEE7"/>
</g>
<defs>
<clipPath id="clip0_1_5147">
<rect width="31" height="34" fill="white"/>
</clipPath>
</defs>
</svg>
