<svg width="19" height="27" viewBox="0 0 19 27" fill="none" xmlns="http://www.w3.org/2000/svg">
<g clip-path="url(#clip0_321_2630)">
<path d="M16.4599 15.8582C17.7192 14.2731 18.5285 12.3684 18.8005 10.3497C19.3354 6.3358 17.7226 3.15871 14.2592 1.40371C13.1899 0.861843 12.0254 0.570522 10.9245 0.318742C8.10461 -0.326185 5.52268 0.173569 3.24992 1.80356C1.40044 3.13018 0.384275 4.75059 0.143428 6.75759C-0.03815 8.28648 0.0602337 9.83634 0.433609 11.3288C1.18713 14.3755 2.53534 16.7701 4.55517 18.649C4.60548 18.6959 4.65645 18.7425 4.70752 18.7891C4.93239 18.9821 5.13958 19.1955 5.32662 19.4265C5.49783 19.6531 5.69507 19.9454 5.69982 20.1973C5.71721 21.1426 5.66303 22.0742 5.60193 22.9394C5.56404 23.4751 5.50337 24.0193 5.44464 24.5457C5.40869 24.8672 5.37284 25.1889 5.34164 25.5115C5.27212 26.2277 5.51234 26.5859 6.17075 26.7481C6.56135 26.8468 6.96207 26.8979 7.36453 26.9007H7.40152C8.73498 26.8892 10.0896 26.8581 11.4004 26.828L12.2749 26.8082C13.1236 26.7893 13.4656 26.4751 13.5368 25.6488C13.6613 24.2015 13.7211 23.0902 13.7303 22.0453L13.7316 21.9336C13.739 21.3137 13.7472 20.6144 13.2158 20.0166L14.2046 18.7491C14.9583 17.7825 15.7101 16.8189 16.4599 15.8582ZM12.2904 19.8402L10.8098 19.7264C10.8078 19.7142 10.8074 19.7018 10.8087 19.6895C11.0269 18.8364 11.2474 17.9839 11.47 17.1322C11.9651 15.2269 12.4771 13.2568 12.9419 11.3088C13.3007 9.80599 13.3121 8.47418 12.9766 7.23755C12.8115 6.62907 12.498 6.17964 12.0698 5.93784C11.8635 5.82792 11.6375 5.76163 11.4054 5.74298C11.1733 5.72435 10.9398 5.75373 10.7192 5.82938C10.5433 5.88889 10.3739 5.9666 10.2136 6.06122L10.1478 6.09696C10.0441 6.15304 9.94797 6.21772 9.84616 6.28544L9.79012 6.32275C9.76217 6.28697 9.73483 6.25127 9.70763 6.21582C9.60811 6.08123 9.50188 5.95193 9.3893 5.82842C8.79091 5.19282 7.92986 5.13093 7.24619 5.67477C6.78348 6.05577 6.43278 6.55884 6.23247 7.12893C5.52753 8.96789 5.47518 10.8853 6.07692 12.8278C6.39182 13.8443 6.7254 14.8732 7.04851 15.868C7.17028 16.2434 7.29177 16.6188 7.41297 16.9943C7.67663 17.8369 7.83087 18.7108 7.87177 19.594H6.74236C6.67943 18.7651 6.1378 18.2031 5.61411 17.6588C5.51695 17.5582 5.41981 17.4573 5.32557 17.3545C3.16281 15.0018 1.97595 12.482 1.69743 9.65122C1.60146 8.67637 1.53043 7.63837 1.65922 6.65276C1.85353 5.16557 2.68812 3.91987 4.21049 2.84426C6.06472 1.53421 8.12678 1.1111 10.3382 1.58667C11.5042 1.83725 12.637 2.10714 13.6791 2.64966C16.3773 4.05454 17.6111 6.49936 17.2468 9.71993C16.9957 11.9406 15.9902 13.8987 13.9865 16.069C13.4604 16.6392 12.8728 17.3386 12.5038 18.2039C12.3122 18.6534 12.1257 19.1837 12.2904 19.8402ZM12.3578 22.5936L12.296 23.5631H6.71311V22.4216L12.3578 22.5936ZM12.1849 24.8028L12.1527 25.5477C10.4824 25.623 8.55673 25.6867 6.65565 25.5392C6.65188 25.5127 6.64802 25.4878 6.64489 25.4642C6.63118 25.3946 6.62416 25.3239 6.62402 25.253C6.63147 25.0877 6.64726 24.9217 6.66377 24.746C6.66766 24.7053 6.6715 24.6642 6.67531 24.6226L12.1849 24.8028ZM6.61616 20.5596L6.77541 20.5644C8.69635 20.6216 10.5124 20.6759 12.3693 20.8726L12.3963 21.3391C10.4943 21.4462 8.58778 21.4416 6.68632 21.3251L6.61616 20.5596ZM8.05358 15.5612C7.98362 15.3352 7.91324 15.1093 7.84663 14.8826C7.4839 13.6546 7.1351 12.4498 6.85485 11.2119C6.59436 10.0621 6.74691 8.84525 7.33332 7.38231C7.46277 7.08942 7.64788 6.82547 7.87805 6.6056C7.92071 6.55375 7.97364 6.51158 8.03339 6.48191C8.09313 6.45224 8.15834 6.4357 8.22478 6.43336C8.35066 6.43929 8.48115 6.5235 8.61254 6.68353C8.9514 7.09632 8.95869 7.20066 8.68244 7.69797C8.12042 8.70992 7.89151 9.68204 7.98273 10.6697C8.0041 10.9805 8.07544 11.2854 8.1939 11.5726C8.24153 11.7172 8.32728 11.8459 8.4418 11.9444C8.55632 12.043 8.69527 12.1078 8.84347 12.1317C8.99166 12.1556 9.14346 12.1377 9.28235 12.08C9.42124 12.0223 9.54188 11.9269 9.6312 11.8043C9.83141 11.5667 9.98834 11.2946 10.0946 11.001C10.4971 9.95976 10.5746 8.81788 10.3168 7.73028C10.2355 7.37401 10.4833 7.07476 10.997 6.90914C11.2056 6.84186 11.3695 6.84177 11.4838 6.90839C11.543 6.95057 11.593 7.00484 11.6305 7.06773C11.6681 7.13061 11.6922 7.20076 11.7015 7.27367C11.8311 7.85373 11.9914 8.57561 11.9105 9.22405C11.7702 10.3454 11.5313 11.4757 11.2999 12.5686C11.2568 12.7742 11.2137 12.9797 11.1705 13.185C11.0319 13.8496 10.8804 14.5235 10.7339 15.1751C10.5373 16.0503 10.3344 16.9554 10.1585 17.8512C10.0841 18.2907 10.0427 18.7351 10.0344 19.1809C10.0265 19.3597 10.0183 19.5431 10.0063 19.731L8.69028 19.6487C8.86938 18.1955 8.45505 16.8568 8.05389 15.5612H8.05358ZM9.16886 9.90397L9.24508 9.42711C9.24479 9.58915 9.21916 9.75009 9.16918 9.90397H9.16886Z" fill="black"/>
</g>
<defs>
<clipPath id="clip0_321_2630">
<rect width="19" height="27" fill="white"/>
</clipPath>
</defs>
</svg>
