<svg width="35" height="35" viewBox="0 0 35 35" fill="none" xmlns="http://www.w3.org/2000/svg">
<path d="M25.1348 31.6401C25.1616 31.6094 25.1338 31.6267 25.1293 31.6484C24.6617 33.9129 23.1646 34.8682 20.9803 34.9426C20.1674 34.9704 19.3532 35.0116 18.5404 34.9962C15.5652 34.9406 12.5904 34.8478 9.61504 34.8024C8.37447 34.7835 7.13207 34.8854 5.89196 34.8601C5.28216 34.8384 4.6779 34.7356 4.09497 34.5543C2.61683 34.114 1.51559 33.2124 1.09148 31.6721C0.842141 30.7665 0.59709 29.8333 0.550492 28.9024C0.324277 24.3821 0.140936 19.8596 0.000481067 15.335C-0.00734356 14.3384 0.0803001 13.3432 0.262194 12.3634C0.40489 11.4852 0.659421 11.4036 1.51147 11.4025C3.77261 11.3996 6.03374 11.3688 8.29488 11.3103C13.405 11.18 18.5144 11.0184 23.6246 10.891C24.6502 10.8655 24.6968 10.9678 24.9061 11.9591C25.0462 12.622 25.2471 13.2719 25.4372 13.9889C25.5017 13.9852 25.6228 13.9855 25.7418 13.97C30.4178 13.3618 33.5395 15.523 34.603 20.1141C34.9636 21.6701 35.1287 23.2489 34.8837 24.834C34.3378 28.3667 32.0353 30.6941 28.4161 31.3402C27.3753 31.5256 26.3042 31.5384 25.1348 31.6401ZM1.74568 13.1925C1.74568 13.6416 1.72659 14.0733 1.74889 14.5028C1.88013 17.0303 1.98219 19.5603 2.16934 22.084C2.36032 24.6576 2.58551 27.2319 2.89642 29.7923C3.10145 31.4817 4.09161 32.4286 5.75339 32.7292C6.55193 32.886 7.36163 32.9785 8.17479 33.0058C11.9378 33.0729 15.7013 33.1145 19.4652 33.1307C20.1755 33.1098 20.884 33.0459 21.5867 32.9394C22.3382 32.8518 22.7391 32.3974 22.9087 31.6639C23.2706 30.0996 23.2272 28.522 23.162 26.9345C23.0098 23.2315 22.8769 19.5278 22.7632 15.8234C22.7282 14.7351 22.7577 13.6447 22.7577 12.4567L1.74568 13.1925ZM25.4431 29.7637C26.7981 29.5077 28.1015 29.391 29.3193 29.0036C31.5994 28.2783 32.8716 26.6179 33.101 24.2164C33.2558 22.5972 32.9969 21.0163 32.5729 19.4467C31.6232 15.9305 27.6901 14.8126 25.2364 15.4441V17.3078C29.3572 18.1252 30.5469 20.2627 30.6708 23.0794C30.7166 24.1121 30.35 25.031 29.7381 25.8544C28.6799 27.2786 27.1373 27.715 25.4431 27.9061V29.7637ZM25.2636 25.8661C26.0171 25.5847 26.6513 25.405 27.2336 25.1172C28.1794 24.651 28.661 23.8427 28.6941 22.7793C28.7583 20.7159 27.4995 19.3273 25.2636 18.9516V25.8661Z" fill="black"/>
<path d="M11.9748 0.498649C11.918 0.823195 11.8965 1.02789 11.8456 1.22489C11.4965 2.57548 11.797 3.80205 12.5319 4.9501C12.9028 5.52958 13.3379 6.08079 13.6175 6.70191C13.9144 7.37326 14.1282 8.07868 14.2543 8.80239C14.2948 9.20567 14.2125 9.61182 14.0184 9.96703C13.9069 10.1888 13.5398 10.4216 13.3088 10.4013C13.0778 10.381 12.8426 10.0755 12.6766 9.8458C12.5702 9.66917 12.5231 9.46286 12.5421 9.25726C12.6243 7.97582 12.0433 6.93502 11.3755 5.92511C10.5894 4.73619 10.1552 3.44353 10.3652 2.01304C10.471 1.41428 10.6613 0.833792 10.9304 0.289194C11.0097 0.117701 11.3989 -0.0138317 11.6179 0.0199752C11.7771 0.0447157 11.8891 0.373256 11.9748 0.498649Z" fill="black"/>
<path d="M15.6934 2.65676C15.8814 1.91916 16.0247 1.22197 16.2434 0.550132C16.3697 0.161353 16.6864 -0.114488 17.1345 0.047017C17.5547 0.198072 17.5839 0.582716 17.4737 0.947676C17.0459 2.36649 17.3988 3.6536 18.0188 4.93688C18.4561 5.85588 18.8313 6.80344 19.142 7.77313C19.2697 8.21473 19.2875 8.68113 19.1937 9.13125C19.1424 9.39663 18.8368 9.75927 18.5995 9.79861C18.3774 9.83534 18.0639 9.53523 17.8509 9.32225C17.7218 9.19347 17.7064 8.9493 17.6405 8.75676C17.179 7.40833 16.7042 6.06419 16.2617 4.70946C16.0417 4.03977 15.8823 3.34826 15.6934 2.65676Z" fill="black"/>
<path d="M7.19684 9.72577C7.19615 9.69997 7.19852 9.67418 7.20387 9.64894C7.68161 8.23104 7.0245 7.16705 6.22318 6.07155C5.66514 5.33253 5.3571 4.43318 5.34417 3.50527C5.33125 2.57736 5.61413 1.66969 6.15137 0.915239C6.40421 0.605697 6.72221 0.356446 7.08241 0.185468C7.23 0.108634 7.61713 0.199596 7.68222 0.325911C7.77282 0.500631 7.71706 0.804755 7.62676 1.01036C7.46466 1.37916 7.17866 1.69647 7.03535 2.07065C6.5295 3.39112 6.69771 4.62231 7.59697 5.73932C8.17753 6.45956 8.67727 7.22344 8.80621 8.17587C8.93104 9.09787 8.64458 9.85085 8.02276 10.1806C7.54181 10.4369 7.20998 10.2539 7.19684 9.72577Z" fill="black"/>
</svg>
