<svg width="23" height="27" viewBox="0 0 23 27" fill="none" xmlns="http://www.w3.org/2000/svg">
<g clip-path="url(#clip0_286_2216)">
<path d="M2.08103 6.18204C1.65828 6.11467 1.30866 6.07479 0.966536 6.00085C0.354036 5.86857 0.0408077 5.57431 0.0333077 5.15866C0.0255577 4.7222 0.351271 4.34889 0.985396 4.26901C1.89102 4.15494 2.80793 4.123 3.72106 4.07754C4.21481 4.05277 4.71077 4.07321 5.28239 4.07321C5.19952 3.69446 5.14018 3.39943 5.06993 3.10714C4.92191 2.52157 5.00059 1.9023 5.29044 1.37134C5.67794 0.63441 6.26844 0.185452 7.11107 0.157585C8.64998 0.106722 10.1895 0.0780747 11.7297 0.0716343C12.7492 0.066804 13.7691 0.113857 14.7887 0.137885C14.9343 0.141353 15.0805 0.140735 15.2256 0.151386C16.2656 0.227432 16.9311 0.756407 17.1702 1.76606C17.2785 2.2232 17.2923 2.7029 17.3408 3.17329C17.3658 3.41604 17.3731 3.66052 17.3908 3.94117C17.5586 3.96625 17.7277 3.98154 17.8973 3.98699C19.0207 3.95553 20.1437 3.90921 21.2672 3.88494C21.5566 3.87259 21.8463 3.90145 22.1275 3.97066C22.3532 4.02297 22.556 4.14587 22.7057 4.32119C22.8556 4.49649 22.9445 4.7149 22.9592 4.94413C22.9981 5.18047 22.9623 5.42291 22.8571 5.6384C22.7517 5.85391 22.5818 6.03197 22.3706 6.14837C22.1962 6.25364 22.005 6.33141 21.7881 6.43817C21.7881 7.03836 21.7675 7.63362 21.7915 8.227C21.9341 11.7478 22.1302 15.2681 21.9981 18.7929C21.9503 20.0676 21.8632 21.3463 21.6873 22.6086C21.5897 23.3097 21.3046 23.9931 21.0451 24.6621C20.9223 24.9828 20.7285 25.2722 20.4777 25.5087C20.2271 25.7454 19.9258 25.9231 19.5966 26.029C18.9882 26.2357 18.3636 26.3922 17.7292 26.4965C17.151 26.5699 16.5691 26.6107 15.9863 26.6186C13.7207 26.73 11.4558 26.8623 9.18894 26.935C8.23329 26.9753 7.27592 26.9343 6.32732 26.8127C3.88694 26.4724 2.56054 25.14 2.17429 22.7202C2.05986 22.0499 1.99622 21.3719 1.98393 20.6922C1.95809 16.7979 1.94874 12.9034 1.95592 9.00901C1.95717 8.08457 2.03553 7.15986 2.08103 6.18204ZM3.94969 6.33252C4.06219 8.25485 4.14553 17.6663 4.37028 20.5002C4.43653 21.3359 4.63079 22.1636 4.79704 22.9889C4.96279 23.8116 5.52392 24.29 6.32829 24.4188C7.22829 24.5629 8.14369 24.7017 9.05119 24.695C11.3188 24.6783 13.5867 24.6009 15.8525 24.4993C16.72 24.4604 17.5831 24.2989 18.4453 24.1736C18.6025 24.154 18.7495 24.0858 18.8651 23.9786C18.9808 23.8714 19.0593 23.7307 19.0896 23.5766C19.209 23.0987 19.3633 22.623 19.4203 22.1368C19.7477 19.3448 19.6803 16.5424 19.5938 13.7409C19.5257 11.538 19.4465 9.33535 19.3713 7.13262C19.3645 6.93445 19.3507 6.73554 19.3415 6.56227C14.0366 6.48561 9.29918 6.40993 3.95006 6.33252H3.94969ZM7.28716 4.02886C9.90203 4.12261 12.465 4.11852 15.0446 3.99925V2.28638C12.4365 2.19968 9.87678 2.10654 7.28716 2.35784V4.02886Z" fill="black"/>
<path d="M15.7396 14.8899C15.7124 13.5596 15.6485 12.2114 15.5866 10.9073L15.5854 10.8826C15.5631 10.4098 15.5414 9.93701 15.5199 9.46421C15.5104 9.29901 15.479 9.13573 15.4268 8.97857C15.3121 8.6194 15.0535 8.43003 14.7188 8.46136C14.516 8.47796 14.1668 8.58136 14.1046 9.08594C14.0946 9.17673 14.0896 9.26798 14.0896 9.3593C14.0696 10.9991 13.9185 16.4204 13.917 16.4756C13.8888 17.7789 13.8595 19.1261 13.8395 20.4625C13.8291 20.8306 13.8626 21.1985 13.9395 21.5587C13.9766 21.7494 14.0805 21.9211 14.2328 22.0435C14.3851 22.1658 14.5761 22.231 14.7721 22.2275C14.7951 22.2275 14.8184 22.2266 14.8418 22.225C15.0354 22.2197 15.2208 22.1462 15.3649 22.0181C15.5089 21.8898 15.6023 21.715 15.6283 21.5248C15.6969 21.1289 15.7345 20.7284 15.7408 20.3267L15.7475 19.405C15.7585 17.926 15.7705 16.3967 15.7396 14.8899Z" fill="black"/>
<path d="M9.04995 8.54786H9.04934C8.92461 8.54739 8.80165 8.57694 8.691 8.63401C8.58036 8.69107 8.48536 8.77395 8.41421 8.87545C8.2937 9.08908 8.2257 9.32783 8.21573 9.57237C8.19448 9.90368 8.17219 10.2348 8.14944 10.5741C8.07131 11.7409 7.99034 12.9475 7.95559 14.1384C7.90559 15.832 7.88873 17.5529 7.87185 19.2172C7.86678 19.7266 7.86133 20.2361 7.8555 20.7455C7.8552 20.954 7.88463 21.1615 7.94296 21.3619C8.07934 21.8407 8.40748 22.1382 8.79923 22.1382H8.81174C9.22211 22.1311 9.55006 21.8101 9.64694 21.3201C9.6947 21.0608 9.7149 20.7974 9.70713 20.5339C9.68538 19.1814 9.6587 17.8293 9.63345 16.5447L9.61056 15.3832L9.63675 14.0038C9.66525 12.5095 9.69209 11.097 9.71371 9.67751C9.72654 9.4395 9.69096 9.20136 9.6091 8.97723C9.55889 8.8655 9.48156 8.76783 9.384 8.69291C9.28644 8.61798 9.17168 8.56817 9.04995 8.54786Z" fill="black"/>
</g>
<defs>
<clipPath id="clip0_286_2216">
<rect width="23" height="27" fill="white"/>
</clipPath>
</defs>
</svg>
