<svg width="10" height="10" viewBox="0 0 10 10" fill="none" xmlns="http://www.w3.org/2000/svg">
<g clip-path="url(#clip0_428_44)">
<path d="M4.75254 4.25727C6.07408 4.23826 7.39563 4.21853 8.71718 4.19807C8.8889 4.19509 9.06015 4.15528 9.23232 4.14429C9.37009 4.13283 9.50841 4.13449 9.64598 4.14925C9.77183 4.16527 9.87738 4.24242 9.91147 4.40944C9.94405 4.569 9.89868 4.69658 9.80156 4.80838C9.55621 5.09099 9.31056 5.3736 9.07299 5.66596C7.98587 7.00385 6.87096 8.30472 5.68409 9.50906C5.59081 9.60366 5.49622 9.69633 5.40193 9.78938C5.18001 10.0083 4.94607 10.0313 4.70845 9.83671C4.55658 9.71509 4.41072 9.58263 4.27148 9.44C3.60733 8.74472 2.93976 8.05385 2.28799 7.3413C1.71375 6.71347 1.15491 6.06404 0.598042 5.4128C0.460416 5.25291 0.342991 5.06868 0.249557 4.86621C0.106071 4.54981 0.192133 4.33975 0.481022 4.2567C0.599153 4.2268 0.719758 4.21445 0.840263 4.21993C2.1444 4.24063 3.4485 4.26342 4.75254 4.28826V4.25727ZM1.22491 5.01739C1.24132 5.05026 1.25941 5.08181 1.27905 5.11186C2.35986 6.50485 3.53789 7.76795 4.72279 9.02205C4.77501 9.07739 4.83531 9.12143 4.88698 9.17733C4.98209 9.28037 5.06667 9.26751 5.16188 9.17074C5.34152 8.98813 5.53596 8.82652 5.70924 8.63565C6.71261 7.53031 7.71287 6.42093 8.71001 5.30751C8.84167 5.16049 8.95076 4.98285 9.07395 4.81447L1.22491 5.01739Z" fill="black"/>
<path d="M5.03781 2.92747C3.54286 2.90852 2.04791 2.88883 0.552957 2.8684C0.449977 2.86654 0.347754 2.84685 0.249269 2.80983C0.186189 2.78641 0.130836 2.73883 0.0912895 2.67405C0.0517445 2.60921 0.0300779 2.53057 0.0294714 2.44958C0.019371 2.26666 0.0822496 2.10418 0.224472 2.03691C0.344169 1.97883 0.471643 1.94883 0.60028 1.94834C1.43846 1.96262 2.27649 1.98418 3.11442 2.01306C4.66058 2.06461 6.20669 2.11927 7.75275 2.17703C8.29684 2.19654 8.84098 2.21486 9.38487 2.24157C9.49699 2.24728 9.60793 2.27238 9.71438 2.3161C9.89554 2.39064 9.98805 2.58939 9.95174 2.78405C9.91583 2.9766 9.79638 3.08095 9.59845 3.07225C9.25315 3.05703 8.90825 3.02033 8.5631 3.01399C7.388 2.99244 6.21276 2.9802 5.03756 2.9643L5.03781 2.92747Z" fill="black"/>
<path d="M4.89568 1.13996C3.60493 1.08481 2.12922 1.02375 0.653712 0.955368C0.516541 0.949219 0.380936 0.917046 0.251693 0.860089C0.181188 0.8304 0.120885 0.772201 0.0807838 0.694934C0.0406322 0.617667 0.0230055 0.525927 0.0307837 0.434747C0.0351772 0.348722 0.0620975 0.266735 0.107501 0.201083C0.152956 0.135493 0.214471 0.0897781 0.282855 0.0707719C0.407451 0.0316415 0.535885 0.0140646 0.66442 0.0185366C1.32816 0.0598409 1.99119 0.117418 2.65482 0.161021C3.5427 0.219343 4.43063 0.279778 5.31913 0.321145C6.11282 0.358039 6.90716 0.374561 7.70135 0.391704C8.19322 0.402325 8.68535 0.393691 9.17727 0.40158C9.31546 0.405244 9.45315 0.423132 9.58893 0.454996C9.67145 0.473629 9.77074 0.502015 9.82261 0.571207C9.85226 0.612449 9.87493 0.660523 9.8893 0.712635C9.90366 0.764809 9.90943 0.819964 9.90626 0.874871C9.89616 0.954623 9.80717 1.03344 9.73884 1.08245C9.69233 1.11587 9.62112 1.09984 9.56086 1.10108C8.9742 1.11456 8.38757 1.13419 7.8009 1.13835C6.89429 1.14456 5.98763 1.13996 4.89568 1.13996Z" fill="black"/>
</g>
<defs>
<clipPath id="clip0_428_44">
<rect width="10" height="10" fill="white" transform="matrix(-1 0 0 -1 10 10)"/>
</clipPath>
</defs>
</svg>
