<svg width="15" height="18" viewBox="0 0 15 18" fill="none" xmlns="http://www.w3.org/2000/svg">
<g clip-path="url(#clip0_283_2150)">
<path d="M13.1551 3.49308C13.3114 3.54185 13.4442 3.57666 13.5722 3.62431C14.3864 3.92695 14.7833 4.57091 14.9431 5.39824C15.0721 6.05789 14.9434 6.74279 14.5847 7.30706C14.2501 7.86021 13.7451 8.12685 13.0893 8.18092C13.0801 8.29012 13.0636 8.39976 13.0627 8.50955C13.0445 10.8982 13.0318 13.287 13.0082 15.6756C13.003 16.1979 12.9686 16.7205 12.929 17.2415C12.9209 17.3814 12.8692 17.5151 12.7814 17.6229C12.6822 17.7119 12.5561 17.7633 12.4242 17.7686C12.2705 17.7779 12.1828 17.6525 12.1503 17.5015C12.134 17.4272 12.1247 17.3514 12.1226 17.2752C12.1045 16.3311 12.0832 15.387 12.073 14.4428C12.0535 12.6418 12.0376 10.8407 12.0255 9.03977C12.0224 8.65751 12.025 8.27518 12.025 7.93886C11.7198 7.67184 11.4231 7.45442 11.1768 7.18831C10.5734 6.53627 10.4446 5.74958 10.6782 4.90881C10.8416 4.32093 11.2002 3.89655 11.8259 3.77354C11.8866 3.76159 11.9447 3.73522 12.0578 3.6978C12.0578 3.57763 12.0563 3.44192 12.0578 3.30621C12.0682 2.50151 12.0745 1.69674 12.0941 0.892267C12.0993 0.714209 12.1306 0.538017 12.187 0.369446C12.2202 0.264807 12.2872 0.174658 12.377 0.11371C12.4667 0.0526905 12.574 0.0243835 12.6814 0.0333462C12.7829 0.0310307 12.8824 0.0626984 12.9648 0.123419C13.0471 0.184216 13.1077 0.270781 13.1373 0.369968C13.1883 0.539885 13.2127 0.716972 13.2094 0.894657C13.1991 1.62272 13.1738 2.35049 13.1553 3.07841C13.1524 3.20523 13.1551 3.33235 13.1551 3.49308ZM12.643 4.64919C12.2771 4.65105 11.9129 4.73882 11.6888 4.9112C11.6029 4.97774 11.5414 5.07185 11.5141 5.17843C11.3658 5.93189 11.9261 6.73734 12.5804 6.93048C13.1486 7.09816 13.508 6.91428 13.7106 6.34791C14.0437 5.41676 13.5585 4.64433 12.6431 4.64919H12.643Z" fill="black"/>
<path d="M6.75569 11.2469C6.75569 10.8789 6.76358 10.5483 6.75436 10.2181C6.7108 8.65968 6.6643 7.101 6.61489 5.54224C6.56776 4.11135 6.51048 2.68091 6.46036 1.2501C6.44776 1.07174 6.45125 0.892637 6.47075 0.714878C6.48428 0.586189 6.54215 0.466537 6.63407 0.377357C6.72598 0.288179 6.84594 0.235226 6.97255 0.227982C7.20106 0.225441 7.39649 0.391325 7.4701 0.671633C7.49995 0.795391 7.51539 0.922289 7.5159 1.04963C7.56639 3.3626 7.61549 5.67548 7.6632 7.98822C7.68602 9.02333 7.71756 10.0582 7.74624 11.0932C7.748 11.1557 7.75985 11.2179 7.77061 11.3124C8.93022 11.5566 9.41695 12.3989 9.42427 13.5028C9.43115 14.4887 8.95437 15.2361 7.97117 15.5518C7.94922 16.0496 7.934 16.5334 7.90349 17.0162C7.89046 17.1939 7.85929 17.3698 7.81049 17.541C7.79234 17.6168 7.74807 17.6835 7.68588 17.729C7.62368 17.7744 7.54759 17.7956 7.47134 17.7888C7.39481 17.7892 7.32076 17.7607 7.26349 17.7088C7.20621 17.6569 7.16975 17.5852 7.16105 17.5076C7.13711 17.3695 7.12662 17.2294 7.1298 17.0893C7.12636 16.5923 7.1284 16.0951 7.1284 15.5931C6.97884 15.5409 6.87657 15.4988 6.77098 15.4692C6.3569 15.355 5.98428 15.1204 5.69857 14.7939C5.51891 14.583 5.39608 14.3279 5.34215 14.0539C5.27433 13.6516 5.25012 13.2429 5.26994 12.8353C5.29643 12.0655 5.73196 11.5954 6.41874 11.3421C6.52403 11.3035 6.63481 11.2806 6.75569 11.2469ZM6.3192 13.5869C6.35241 13.738 6.35007 14.0044 6.46554 14.1974C6.74359 14.6619 7.78832 14.6498 8.08502 14.1921C8.35576 13.7751 8.34361 13.3253 8.13983 12.8819C7.95654 12.483 7.5691 12.4396 7.22008 12.4326C6.7264 12.4227 6.40621 12.5482 6.35536 13.1933C6.34731 13.2944 6.33668 13.396 6.3192 13.5869Z" fill="black"/>
<path d="M2.62612 6.81545C2.62612 6.93204 2.62547 7.02047 2.62612 7.10883C2.65051 10.2135 2.67464 13.3181 2.69854 16.4225C2.70059 16.6907 2.69632 16.959 2.68568 17.2272C2.68097 17.3676 2.66322 17.5073 2.63269 17.6443C2.58148 17.8663 2.42622 18.0042 2.24644 17.9978C2.15748 17.9988 2.07103 17.9677 2.00231 17.91C1.9336 17.8524 1.88701 17.7718 1.87076 17.6825C1.83346 17.5347 1.80974 17.3837 1.79988 17.2314C1.59281 13.9398 1.58619 10.6431 1.55546 7.34701C1.5537 7.15648 1.55546 6.96609 1.55546 6.76757C1.41022 6.69692 1.28951 6.63455 1.16592 6.57876C0.849239 6.44611 0.590495 6.20061 0.437789 5.88789C0.220545 5.42803 0.0435688 4.94853 0.00844685 4.43146C-0.0520653 3.54161 0.299218 3.00042 1.12012 2.70286C1.22417 2.66551 1.3296 2.63153 1.46629 2.5853C1.445 2.12462 1.41969 1.66819 1.40498 1.21147C1.39454 1.04641 1.4041 0.880749 1.43349 0.718151C1.45366 0.609852 1.50847 0.511414 1.58933 0.438368C1.6702 0.365246 1.77254 0.321629 1.8803 0.31431C1.98807 0.30699 2.09518 0.336416 2.18481 0.397961C2.27444 0.459429 2.34153 0.54958 2.37557 0.654217C2.42878 0.810616 2.46172 0.973438 2.47349 1.13857C2.51659 1.63339 2.54701 2.12947 2.58404 2.64729C3.66696 2.95351 4.10854 3.75589 4.07979 4.83276C4.05403 5.79512 3.63844 6.52677 2.62612 6.81545ZM2.06198 5.87609C2.56481 5.95712 3.10443 5.45559 3.08701 4.9182C3.06104 4.11642 2.61966 3.63834 2.03261 3.63863C1.37261 3.63863 1.01666 3.95666 0.982783 4.70138C0.950661 5.40824 1.39759 5.87034 2.06198 5.87609Z" fill="black"/>
</g>
<defs>
<clipPath id="clip0_283_2150">
<rect width="18" height="15" fill="white" transform="matrix(0 -1 1 0 0 18)"/>
</clipPath>
</defs>
</svg>
