<svg width="30" height="34" viewBox="0 0 30 34" fill="none" xmlns="http://www.w3.org/2000/svg">
<g clip-path="url(#clip0_1_5144)">
<path d="M0.987299 33.4771C1.31512 33.709 1.7059 33.833 2.10616 33.8322C2.41329 33.8302 2.71659 33.7633 2.99667 33.636C3.77637 33.2539 4.50142 32.767 5.15214 32.189C7.1889 30.4956 9.59818 28.4778 12.0232 26.3537C13.5951 24.9769 15.4372 23.3349 17.1815 21.5952C18.0346 20.7104 18.8364 19.7766 19.583 18.7985C19.7701 18.5634 19.9571 18.3291 20.1441 18.0956C20.5393 17.6048 20.8916 16.9804 20.5072 16.0687C20.4894 16.0264 20.4591 15.9907 20.4205 15.9664C20.3819 15.9421 20.3368 15.9304 20.2914 15.9329C19.7008 15.9671 19.376 15.5711 18.9996 15.1141L18.8854 14.9761C15.5563 11.0053 12.6415 7.90955 9.71277 5.2338C8.2909 3.93504 6.79545 2.62887 5.26674 1.35083C4.56962 0.767817 3.59037 0.108517 2.19289 0.201145C0.998509 0.278518 0.652995 0.361133 0.622564 1.71372C0.609182 2.30807 0.608763 2.91136 0.608548 3.49502C0.608548 3.98279 0.608528 4.47054 0.600327 4.95831L0.578725 6.37498C0.473401 13.1656 0.36465 20.1877 0.244866 27.0938C0.221772 28.419 0.164575 29.8378 0.0696114 31.431C0.034724 31.8231 0.100915 32.2176 0.261728 32.5761C0.422539 32.9346 0.672489 33.245 0.987299 33.4771ZM3.76586 4.53355L4.79885 5.52107C6.70029 7.33877 8.66644 9.21812 10.5914 11.0761C12.4126 12.8341 14.5626 14.5677 17.3598 16.5321C17.5441 16.6617 17.728 16.7917 17.9116 16.9224C17.2135 17.4183 16.5148 17.9102 15.8155 18.3981C14.0604 19.6284 12.2455 20.9004 10.5159 22.2207C8.80677 23.5258 7.17056 24.8841 5.4379 26.3223C4.78372 26.8654 4.12135 27.4155 3.44344 27.9715C3.27077 20.1254 3.18572 12.2779 3.18162 4.0135L3.18356 4.01524C3.40133 4.20159 3.58931 4.36353 3.76586 4.53222V4.53355Z" fill="#F7EEE7"/>
<path d="M26.7514 29.8845C26.8594 30.6876 26.9729 31.518 27.0618 32.3335C27.1395 33.0451 27.5474 33.1981 27.8759 33.201H27.8863C28.3462 33.201 28.6142 32.9091 28.6833 32.3335C28.7888 31.4526 28.9104 30.5573 29.0286 29.6911C29.2805 27.8329 29.5408 25.9115 29.6634 24.009C29.8132 21.6811 29.8527 19.3467 29.8984 16.6441C29.92 15.3523 29.9427 14.0167 29.9791 12.5414V12.5303L29.9358 10.7015C29.8868 8.55449 29.8261 5.88264 29.746 3.2108C29.7173 2.52701 29.6239 1.84757 29.4672 1.18172C29.4139 0.908399 29.2641 0.663886 29.0459 0.493636C28.8275 0.323385 28.5553 0.238961 28.2801 0.25608H28.2739C28.0009 0.243259 27.7322 0.328243 27.515 0.496005C27.2981 0.663767 27.1468 0.90353 27.0879 1.173C26.9692 1.58069 26.8922 1.99948 26.8574 2.42294C26.8214 2.94493 26.7821 3.46667 26.743 3.98844C26.6258 5.56007 26.5045 7.18512 26.4665 8.78835L26.415 10.9025C26.3049 15.375 26.1914 19.9998 26.2471 24.5486C26.3068 26.336 26.4752 28.118 26.7514 29.8845Z" fill="#F7EEE7"/>
</g>
<defs>
<clipPath id="clip0_1_5144">
<rect width="30" height="34" fill="white"/>
</clipPath>
</defs>
</svg>
