<svg width="29" height="28" viewBox="0 0 29 28" fill="none" xmlns="http://www.w3.org/2000/svg">
<g clip-path="url(#clip0_352_49)">
<path d="M7.44862 6.6972C7.44862 6.30445 7.16419 6.05196 6.96093 5.76159C6.37207 4.92071 5.75966 4.09521 5.18979 3.24196C4.72503 2.57865 4.3983 1.83085 4.22851 1.04195C4.20207 0.898165 4.21067 0.750242 4.25368 0.610406C4.29668 0.470569 4.37289 0.342859 4.47585 0.237848C4.57534 0.1314 4.70496 0.0569983 4.84791 0.0243766C4.99086 -0.00824493 5.14044 0.00241033 5.27717 0.0549553C5.70166 0.239955 5.99634 0.566345 6.28013 0.90072C7.42088 2.24472 8.55591 3.59354 9.68519 4.9472C10.7702 6.24207 11.8709 7.52472 12.9287 8.84072C14.0783 10.2708 15.1857 11.7338 16.3129 13.1815C16.6288 13.587 16.9311 14.0045 17.271 14.3895C18.7803 16.099 20.1341 17.927 21.5145 19.7366C22.048 20.4359 22.6482 21.0852 23.1896 21.779C24.4535 23.3987 25.7063 25.0267 26.9482 26.663C27.2395 27.0474 27.1226 27.6121 26.7669 27.8275C26.6026 27.9125 26.416 27.9457 26.232 27.9227C26.0481 27.8997 25.8757 27.8214 25.7383 27.6986C25.53 27.4926 25.33 27.2776 25.1357 27.0587C23.4767 25.191 21.8181 23.3229 20.1601 21.4545C20.0664 21.3406 19.9436 21.2534 19.8045 21.2017C19.6653 21.15 19.5147 21.1357 19.3681 21.1604C18.858 21.2442 18.3516 21.3496 17.8428 21.4426C15.0749 21.9492 12.3903 21.5729 9.76192 20.6744C7.44344 19.8818 5.2393 18.8541 3.24602 17.4275C2.642 17.0061 2.07199 16.5391 1.54111 16.0309C1.12901 15.6131 0.770763 15.1467 0.474464 14.6424C-0.177213 13.5661 -0.100241 13.0651 0.794707 12.1042C2.45341 10.3293 4.34237 8.7784 6.41252 7.49172C6.78091 7.26122 7.23637 7.1342 7.44862 6.6972ZM11.5079 11.2597C10.9158 10.3286 10.1586 9.53772 9.3577 8.78997C9.2241 8.66497 8.94104 8.6461 8.73373 8.66247C8.5147 8.69367 8.30395 8.7667 8.11322 8.87746C5.94139 9.99546 3.98928 11.4224 2.16304 13.0241C2.09172 13.0812 2.03286 13.152 1.98997 13.2322C1.94709 13.3124 1.92105 13.4002 1.91348 13.4906C1.90591 13.581 1.91692 13.672 1.94588 13.758C1.97485 13.844 2.02113 13.9234 2.08198 13.9914C2.57189 14.5372 3.13729 15.0124 3.76147 15.4027C5.92622 16.8312 8.28456 17.8527 10.7724 18.5797C12.7795 19.1659 14.8341 19.2707 16.9081 19.0072C17.0644 18.9931 17.2141 18.9386 17.3421 18.849C17.4702 18.7594 17.5718 18.638 17.6369 18.4971C17.4332 18.23 17.2108 17.9434 16.9936 17.653C16.4416 16.9149 15.823 16.328 14.7742 16.6226C14.6279 16.6425 14.4797 16.6434 14.3333 16.6251C12.7638 16.6264 10.8634 15.3425 11.1352 12.9782C11.2004 12.4091 11.3759 11.8527 11.5079 11.2592V11.2597Z" fill="black"/>
<path d="M23.3797 19.4175C22.8442 19.1309 22.496 18.6765 22.1822 18.1558C22.0839 17.9961 22.0461 17.8071 22.0752 17.6225C22.1044 17.4379 22.1989 17.2694 22.3419 17.1469C22.4047 17.0931 22.4717 17.0443 22.5423 17.0009C23.3616 16.5028 24.1196 15.9128 24.8013 15.2425C27.4579 12.646 27.3137 13.2821 24.8013 10.841C23.2437 9.32853 21.2736 8.45904 19.1899 7.86804C17.908 7.50454 16.5979 7.27916 15.2528 7.33053C14.8837 7.34478 14.5137 7.33652 14.1442 7.34539C13.5855 7.35902 13.1463 7.11067 12.7842 6.72217C12.5862 6.50967 12.427 6.26179 12.2496 6.03054C12.1397 5.88717 12.2738 5.56167 12.4554 5.50217C13.8965 5.02979 15.3739 5.08078 16.8459 5.25766C20.8857 5.74316 24.2813 7.55766 27.2155 10.2719C27.6956 10.7159 28.0902 11.2563 28.488 11.779C28.7903 12.2003 28.9498 12.7051 28.9439 13.2213C28.9498 13.5049 28.941 13.8374 28.8022 14.0675C27.5046 16.2209 26.0071 18.1941 23.6445 19.3348C23.5581 19.368 23.4697 19.3956 23.3797 19.4175Z" fill="black"/>
<path d="M18.7263 12.7861C18.6903 13.069 18.4778 13.7051 18.3717 13.5749C17.5421 12.5624 16.2892 11.0805 15.4938 10.0413C15.4612 9.98661 15.4428 9.92477 15.4404 9.86136C15.438 9.79795 15.4515 9.73495 15.4799 9.67801C15.5302 9.62869 15.5908 9.59079 15.6575 9.56692C15.7241 9.54307 15.7952 9.53384 15.8658 9.53989C16.5219 9.64299 17.132 9.93609 17.6191 10.382C18.3694 11.06 18.8316 11.9564 18.7263 12.7861Z" fill="black"/>
</g>
<defs>
<clipPath id="clip0_352_49">
<rect width="29" height="28" fill="white"/>
</clipPath>
</defs>
</svg>
