<svg width="31" height="23" viewBox="0 0 31 23" fill="none" xmlns="http://www.w3.org/2000/svg">
<g clip-path="url(#clip0_1_5137)">
<path d="M9.94006 3.14791C10.1964 3.31924 10.4883 3.4336 10.795 3.48294C11.3302 3.54967 11.8691 3.58511 12.4087 3.58906C13.2815 3.60578 14.1543 3.62454 15.027 3.64532C17.2499 3.69548 19.543 3.74729 21.8089 3.74729C21.9755 3.74729 22.142 3.74701 22.3084 3.74645C24.0946 3.74022 25.9083 3.64103 27.6623 3.54501C28.2054 3.51536 28.7483 3.48653 29.2911 3.45854C29.529 3.43523 29.7625 3.38096 29.9856 3.29714C30.1117 3.25668 30.2414 3.21399 30.3888 3.17506C30.4105 3.1692 30.4304 3.15857 30.4472 3.14399C30.4638 3.1294 30.4769 3.11127 30.4853 3.09097C30.4937 3.07067 30.4973 3.04876 30.4955 3.02694C30.4938 3.00513 30.487 2.98399 30.4756 2.96516C30.0999 2.34832 29.6314 2.28846 29.255 2.24024C29.2007 2.23346 29.1478 2.22638 29.0967 2.21806C26.8486 1.84646 24.8164 1.53805 22.7163 1.52932C22.0119 1.52641 21.3083 1.51962 20.6036 1.51283C19.5302 1.50244 18.4203 1.49273 17.3284 1.49564C15.3263 1.50298 13.3175 1.53083 11.3572 1.57877C10.9093 1.58646 10.4665 1.67248 10.0499 1.83274C9.92875 1.88438 9.8246 1.96761 9.74894 2.07322C9.67326 2.17884 9.62899 2.30275 9.62097 2.43131C9.60247 2.56772 9.62239 2.70647 9.67859 2.8327C9.7348 2.95893 9.82517 3.06788 9.94006 3.14791Z" fill="#FFFEFE"/>
<path d="M30.8868 12.417C30.8395 12.2853 30.7947 12.1611 30.6744 12.1122C30.3946 11.9947 30.0991 11.9174 29.7967 11.8827C29.1802 11.8226 28.5639 11.7566 27.9481 11.6905C26.3696 11.5212 24.738 11.3462 23.126 11.2801C20.1183 11.1568 17.0581 11.1024 14.0987 11.05C13.1287 11.0328 12.1589 11.0148 11.1893 10.996C10.834 10.9804 10.4788 11.0299 10.1424 11.1421C10.0177 11.2023 9.90724 11.2869 9.81776 11.3906C9.72827 11.4943 9.66175 11.6149 9.62233 11.7448C9.5709 11.9183 9.58935 12.1043 9.67392 12.265C9.75849 12.4256 9.90282 12.5488 10.0774 12.6093C10.4919 12.7715 10.9268 12.8791 11.3706 12.9292C13.026 13.0564 14.7108 13.1578 16.34 13.2558L16.8886 13.2888C18.6877 13.3972 20.4294 13.4516 22.1326 13.4516C24.3718 13.4516 26.5441 13.3576 28.6881 13.1693C28.7989 13.1596 28.9103 13.1513 29.0223 13.143C29.6313 13.0978 30.2613 13.0511 30.8798 12.762C30.9145 12.7457 30.9413 12.7169 30.9542 12.6816C30.9671 12.6463 30.9653 12.6074 30.9491 12.5734C30.9256 12.5223 30.9049 12.4701 30.8868 12.417Z" fill="#FFFEFE"/>
<path d="M30.1935 20.2093C30.1405 20.1938 30.0909 20.1763 30.0435 20.1598C29.9398 20.1177 29.8306 20.0903 29.719 20.0784C29.185 20.044 28.6511 20.0059 28.1171 19.9675C26.7854 19.8725 25.4084 19.7735 24.0501 19.7397C20.1101 19.6408 16.1032 19.593 12.2285 19.5466L11.6784 19.5401C11.2729 19.538 10.8716 19.6206 10.5016 19.7825C10.3705 19.84 10.2583 19.9318 10.1773 20.0475C10.0964 20.1632 10.0498 20.2985 10.0429 20.4385C10.0303 20.5874 10.0597 20.7369 10.1278 20.8709C10.196 21.0049 10.3002 21.1182 10.4295 21.1987C10.6502 21.3355 10.8978 21.4257 11.1564 21.4636L11.4561 21.5031C12.1284 21.6041 12.8058 21.6698 13.4854 21.6996C14.6901 21.731 15.9148 21.7432 17.0992 21.755C17.9187 21.7632 18.766 21.7716 19.5991 21.7863C19.8542 21.7909 20.1089 21.7931 20.3634 21.7931C23.1686 21.7931 25.9457 21.5314 28.3267 21.2692L28.599 21.2397C28.9859 21.1982 29.3861 21.1555 29.7776 21.0895C30.1769 21.0223 30.3512 20.7661 30.2959 20.3275C30.2924 20.3002 30.2808 20.2746 30.2626 20.2536C30.2444 20.2326 30.2205 20.2172 30.1935 20.2093Z" fill="#FFFEFE"/>
<path d="M2.44525 18.3742C1.30053 18.2772 0.620522 18.9815 0.106462 19.6813C0.0949213 19.697 0.0867614 19.7147 0.0825069 19.7334C0.0782524 19.7523 0.0779825 19.7717 0.0817084 19.7907C0.104461 19.9087 0.126625 20.018 0.147671 20.1215C0.190332 20.3284 0.226031 20.5071 0.254045 20.6879C0.306953 21.1003 0.459328 21.4946 0.698703 21.8386C0.938079 22.1827 1.25766 22.4666 1.63128 22.6672C1.99137 22.8522 2.39254 22.9482 2.79962 22.9471C3.22055 22.9447 3.63551 22.8499 4.01371 22.67C4.29329 22.5515 4.54311 22.3751 4.74584 22.1533C4.94855 21.9315 5.09935 21.6693 5.18774 21.385C5.25751 21.1044 5.26378 20.8126 5.20614 20.5296C5.14851 20.2465 5.02836 19.979 4.85401 19.7458C4.59062 19.3494 4.23546 19.0189 3.81712 18.7807C3.39876 18.5426 2.9289 18.4032 2.44525 18.3742Z" fill="#FFFEFE"/>
<path d="M2.65747 5.40741C2.72601 5.4124 2.79387 5.41485 2.86099 5.41477C3.40177 5.42785 3.93052 5.25813 4.35748 4.93447C4.78443 4.61081 5.08325 4.15315 5.20318 3.63918C5.45915 2.55029 5.13493 1.57126 4.26579 0.807972C3.43547 0.0788993 2.44559 -0.0621473 1.40269 0.400901C1.1865 0.502443 0.976989 0.616922 0.775314 0.743684C0.669089 0.807281 0.55687 0.874471 0.434008 0.943887C0.413783 0.955413 0.396697 0.971487 0.384155 0.990771C0.371611 1.01005 0.363998 1.03199 0.361936 1.05474C0.341743 1.2943 0.31515 1.52582 0.289411 1.74861C0.223417 2.20917 0.194355 2.67404 0.202513 3.139C0.258399 4.35468 1.29077 5.30835 2.65747 5.40741ZM2.26499 1.64068C2.47924 1.70376 2.67681 1.81154 2.84397 1.95654C3.01114 2.10154 3.14389 2.28027 3.23298 2.48032C3.41116 2.84859 3.39238 3.13748 3.17396 3.38923C3.0009 3.58889 2.75077 3.63988 2.38588 3.5494C2.22154 3.51658 2.07196 3.43419 1.95834 3.31394C1.84472 3.19368 1.77282 3.04164 1.75281 2.87935C1.6709 2.37765 1.83384 1.98235 2.26499 1.64068Z" fill="#FFFEFE"/>
<path d="M3.31642 9.79004H3.2992C1.56234 9.8068 0.534242 10.7152 0.478356 12.2818C0.466695 12.5554 0.511983 12.8284 0.611497 13.0845C0.711011 13.3406 0.862695 13.5744 1.05741 13.7718C1.29815 14.0057 1.58488 14.1898 1.90041 14.3131C2.21594 14.4364 2.55377 14.4964 2.89366 14.4895H2.90943C3.24931 14.4949 3.58686 14.4338 3.90206 14.3098C4.21728 14.1858 4.50376 14.0015 4.74455 13.7677C4.95801 13.5576 5.12566 13.3076 5.23746 13.0328C5.34926 12.758 5.40289 12.464 5.39512 12.1685C5.36526 10.8527 4.43455 9.79004 3.31642 9.79004ZM3.08025 12.2932H2.41043C2.24264 11.8914 2.32671 11.6126 2.69842 11.3371C3.02264 11.5146 3.20396 11.7614 3.08025 12.2932Z" fill="#FFFEFE"/>
</g>
<defs>
<clipPath id="clip0_1_5137">
<rect width="31" height="23" fill="white"/>
</clipPath>
</defs>
</svg>
