<svg width="24" height="27" viewBox="0 0 24 27" fill="none" xmlns="http://www.w3.org/2000/svg">
<g clip-path="url(#clip0_1_6326)">
<path d="M6.86478 12.6681C6.17716 12.7044 5.48956 12.7393 4.802 12.7734C4.76274 12.7753 4.72325 12.7763 4.68377 12.7773C4.56669 12.7773 4.4498 12.7869 4.33428 12.8062C3.96698 12.8779 3.78128 13.0864 3.82453 13.3768C3.85074 13.5518 3.9975 13.8381 4.19459 13.8984C4.59789 14.0288 5.01621 14.1057 5.43905 14.127C6.18095 14.1522 6.97638 14.1488 7.94158 14.1163C10.5929 14.0272 13.244 13.9349 15.8952 13.8393C17.3245 13.7887 18.7538 13.7383 20.1832 13.6881C20.3491 13.6821 20.5186 13.6834 20.7327 13.6851L20.8643 13.686C20.7579 13.7962 20.655 13.9023 20.5558 14.0046C20.2151 14.3564 19.9208 14.6602 19.6268 14.9766C19.3479 15.2769 19.07 15.5867 18.8013 15.8864C18.6169 16.0921 18.432 16.2975 18.2464 16.5026C17.9467 16.8314 17.6446 17.1581 17.3448 17.4824L16.9467 17.9129C16.9303 17.9307 16.92 17.9533 16.9171 17.9775C16.9142 18.0017 16.9189 18.026 16.9306 18.0473L17.1337 18.4129C17.1435 18.4306 17.1579 18.4456 17.1754 18.4558C17.1927 18.4661 17.2125 18.4715 17.2327 18.4715C17.2458 18.4715 17.259 18.4693 17.2714 18.4648C17.3083 18.4512 17.3451 18.4402 17.3806 18.4297C17.4662 18.4092 17.5481 18.3748 17.6229 18.328C19.6153 16.9282 21.5243 15.4106 23.3402 13.7829C23.5187 13.6264 23.6769 13.4478 23.8113 13.2512C24.1075 12.8102 24.0382 12.3325 23.6258 11.9749C23.5206 11.8882 23.4086 11.81 23.2911 11.7413L22.6369 11.3326C21.3154 10.5063 19.9493 9.65216 18.6013 8.8174C18.4029 8.67681 18.1781 8.57895 17.9408 8.52998C17.8309 8.52237 17.7206 8.54098 17.619 8.58425C17.5173 8.62752 17.4271 8.6943 17.3554 8.77921C17.2476 8.93762 17.2192 9.27209 17.3398 9.43555C17.5486 9.72172 17.8032 9.97051 18.0931 10.1715C18.5663 10.4939 19.0553 10.8092 19.5272 11.1141C19.9324 11.3755 20.3514 11.646 20.7582 11.9192C20.8356 11.9714 20.919 12.0174 20.9993 12.0617C21.1974 12.1514 21.3714 12.2875 21.5071 12.4588C21.376 12.4466 21.2466 12.4335 21.1185 12.4202C20.7072 12.3707 20.2938 12.3435 19.8797 12.3389L19.5541 12.3415C16.9468 12.3621 14.2506 12.3834 11.5996 12.4577C10.0206 12.502 8.41627 12.5864 6.86478 12.6681Z" fill="#F7EEE7"/>
<path d="M10.4427 0.341975C10.1109 0.293913 5.88222 0.0437174 3.40292 0.0302734C3.05221 0.0488709 2.66124 0.0788267 2.28322 0.107843C2.00572 0.129129 1.73133 0.150241 1.47695 0.166486C0.823747 0.208274 0.416082 0.584152 0.297963 1.25388C0.231843 1.67433 0.192649 2.09865 0.180619 2.52422C0.0219096 5.94257 0.0576277 9.41744 0.0921346 12.7781C0.100393 13.5773 0.107767 14.3765 0.114255 15.1757C0.127085 16.9645 0.165242 18.8453 0.230937 20.9255C0.26091 21.8726 0.311343 22.834 0.360228 23.7639C0.390864 24.3477 0.421501 24.9315 0.447492 25.5154C0.480671 26.2509 0.765135 26.6358 1.40008 26.8019C1.75896 26.8822 2.12507 26.9248 2.49258 26.9288L2.65627 26.9366C3.10972 26.959 3.62865 26.9693 4.18475 26.9693C6.55256 26.9693 9.58309 26.7922 10.963 26.7025C11.1379 26.6912 11.302 26.6129 11.4217 26.4834C11.5414 26.3538 11.6079 26.1827 11.6075 26.0052C11.607 25.8278 11.5397 25.6571 11.4192 25.5282C11.2989 25.3992 11.1344 25.3217 10.9595 25.3114C10.0445 25.257 8.35942 25.1546 7.35396 25.0832C6.41276 25.016 5.45487 24.9737 4.52838 24.9333C3.99606 24.9101 3.46375 24.8868 2.93166 24.8587C2.75999 24.8464 2.58909 24.8247 2.41969 24.7939C2.3624 24.7846 2.30467 24.7752 2.24616 24.7664C2.23842 24.718 2.23057 24.6716 2.22305 24.6269C2.19947 24.5033 2.18285 24.3784 2.17328 24.2528C2.13612 23.5742 2.0931 22.8845 2.05162 22.2175C1.95208 20.6293 1.84956 18.9869 1.82069 17.3716C1.77158 14.6341 1.77645 11.8492 1.78209 9.15584C1.78372 8.29274 1.78478 7.42963 1.7853 6.56638C1.7853 5.26893 1.81162 3.98014 1.83728 2.89051C1.84369 2.61748 1.87223 2.34635 1.90519 2.03221C1.91846 1.90617 1.93228 1.77456 1.94545 1.6344C2.33122 1.60796 3.12886 1.58868 4.11651 1.56504C6.64569 1.50432 10.1095 1.42096 10.751 1.12183C10.766 1.11483 10.7793 1.1046 10.79 1.09185C10.8007 1.0791 10.8085 1.06422 10.8129 1.04809C10.8433 0.965345 10.8557 0.87683 10.8491 0.788795C10.8425 0.700761 10.8172 0.615214 10.7749 0.538034C10.7369 0.482844 10.6875 0.436777 10.6302 0.402915C10.5728 0.369054 10.5088 0.348211 10.4427 0.341975Z" fill="#F7EEE7"/>
</g>
<defs>
<clipPath id="clip0_1_6326">
<rect width="24" height="27" fill="white"/>
</clipPath>
</defs>
</svg>
