<svg width="40" height="40" viewBox="0 0 40 40" fill="none" xmlns="http://www.w3.org/2000/svg">
<g clip-path="url(#clip0_1_5340)">
<path d="M10.9658 24.0784C10.5607 23.8885 10.142 23.6921 9.74843 23.4755C9.51152 23.3711 9.25373 23.3223 8.99499 23.3333C6.12715 23.2523 3.78894 24.3235 2.03231 26.5154C0.402944 28.5481 -0.200584 30.9831 0.238404 33.7525C0.779332 37.1663 2.98051 39.3692 6.27773 39.7962C6.66529 39.8464 7.0557 39.8715 7.44651 39.8713C8.85194 39.8528 10.2403 39.5609 11.5343 39.0119C15.0426 37.5942 17.0487 33.7145 16.2003 29.9883C16.1158 29.6063 16.0695 29.217 16.0622 28.8259C15.9839 25.6742 15.915 22.4693 15.8487 19.3702L15.8401 18.9653C15.8338 18.6771 15.8357 18.3839 15.8374 18.1007C15.8374 18.0077 15.8384 17.9152 15.8387 17.8226C22.315 15.332 29.2156 13.0173 36.9231 10.7508L37.1594 18.0205C37.0814 18.007 37.0055 17.9954 36.931 17.9839C36.7005 17.9645 36.4752 17.9053 36.2647 17.809C34.3612 16.735 32.1764 16.4659 29.5882 16.9856C26.7467 17.5555 24.8153 19.0293 23.8475 21.3655C22.2812 25.1461 22.7604 28.7832 25.2331 31.8804C27.1369 34.2654 29.6382 35.2026 32.4688 34.5913C34.7349 34.1019 36.6544 32.8977 38.1734 31.0133C38.8606 30.1561 39.3327 29.1468 39.5499 28.0696C39.9955 25.8612 39.9629 23.5831 39.4546 21.3881C39.3653 21.0406 39.3179 20.6836 39.3135 20.3248C39.3356 19.461 39.3702 18.5822 39.4036 17.7326C39.4608 16.2867 39.5197 14.7917 39.5194 13.3195C39.5194 10.4748 39.4581 7.58343 39.3996 4.78697C39.3854 4.11119 39.3715 3.43546 39.3579 2.75968C39.3363 2.20388 39.2762 1.65028 39.1779 1.10282C39.0797 0.496235 38.744 0.142487 38.2571 0.132022L38.1697 0.130127C37.5273 0.115781 36.8639 0.10128 36.2468 0.270225C34.3989 0.776554 32.4468 1.3651 30.4444 2.02046C28.2649 2.73388 26.0752 3.53199 23.9575 4.30397C20.8885 5.42262 17.7148 6.57958 14.5204 7.49654C14.2591 7.54682 14.0175 7.67048 13.824 7.85313L13.7933 7.88915C13.5334 8.19295 13.2389 8.5355 13.1857 8.92182C13.0744 9.7322 13.0427 10.5515 13.091 11.3681C13.2909 14.7389 13.5103 18.1652 13.7224 21.4777C13.8124 22.886 13.9025 24.2943 13.9925 25.7024C14.0006 25.8317 13.999 25.9628 13.9969 26.1007C13.1697 25.1117 12.0507 24.5868 10.9658 24.0784ZM13.1646 28.5718C14.1624 30.0063 14.392 31.9858 13.7633 33.7365C13.4936 34.5267 13.0366 35.2399 12.4313 35.8153C11.8261 36.3907 11.0905 36.8107 10.2875 37.0399C9.63314 37.2236 8.95128 37.3628 8.29187 37.4975C7.98909 37.5593 7.68597 37.621 7.38436 37.6874C4.64175 37.5555 2.90117 36.0229 2.48261 33.3696C2.00278 30.3289 3.1329 26.3515 7.89712 25.1488C8.11793 25.0912 8.34502 25.0614 8.57322 25.0597C9.01937 25.0588 9.45516 25.1942 9.82218 25.4479C11.3204 26.4534 12.3825 27.446 13.1646 28.5718ZM16.2666 15.1831C16.0726 15.2589 15.8784 15.335 15.6826 15.4041C15.6701 15.4032 15.6555 15.4002 15.6376 15.3971L15.417 10.1399L36.9106 2.40827V9.15529C29.5439 10.2549 22.6954 12.6779 16.3889 15.1353L16.2666 15.1831ZM37.2574 23.6111C37.2591 23.7196 37.2607 23.8283 37.2607 23.9368C37.2607 23.9733 37.2723 24.0089 37.2936 24.0384C37.315 24.0681 37.3454 24.0901 37.38 24.1015C37.3427 24.4222 37.3125 24.7469 37.2828 25.062C37.2267 25.8781 37.1099 26.6889 36.9332 27.4875C36.2723 30.14 32.9521 32.3873 30.2303 32.0239C28.6017 31.8069 27.2787 30.8283 26.4048 29.194C25.1719 26.8897 25.0058 24.5561 25.9111 22.2573C26.3415 21.0916 27.2065 20.1378 28.3246 19.5957C29.4809 19.0085 30.7563 18.6936 32.0531 18.6752C32.8235 18.6755 33.5889 18.7991 34.3204 19.0413C35.85 19.5442 37.3962 20.395 37.2637 22.8906C37.2514 23.1323 37.2547 23.3755 37.2581 23.6117L37.2574 23.6111Z" fill="black"/>
</g>
<defs>
<clipPath id="clip0_1_5340">
<rect width="40" height="40" fill="white"/>
</clipPath>
</defs>
</svg>
