<svg width="25" height="27" viewBox="0 0 25 27" fill="none" xmlns="http://www.w3.org/2000/svg">
<g clip-path="url(#clip0_1_6299)">
<path d="M9.872 14.6713C12.2112 12.3786 14.7514 10.2014 16.9489 8.34026C17.948 7.4898 18.8629 6.54783 19.6818 5.52693C19.7557 5.4358 19.852 5.31428 19.9412 5.1837C20.0345 5.06801 20.082 4.9229 20.0751 4.77523C20.0682 4.62757 20.0073 4.48739 19.9036 4.3807C19.812 4.27555 19.685 4.20666 19.5459 4.18675C19.4069 4.16683 19.2653 4.19725 19.1471 4.27236C18.9108 4.39787 18.6862 4.54397 18.4761 4.70889C17.7993 5.25412 17.1336 5.8096 16.5718 6.28117C13.5214 8.83482 10.6106 11.5464 7.8514 14.4044C7.38064 14.8932 6.95281 15.4343 6.53901 15.9571C6.35317 16.1921 6.16092 16.435 5.96788 16.6694C5.39147 17.3689 5.15773 18.2227 5.25325 19.2795C5.34759 20.323 5.88076 21.2704 6.67911 21.8137C7.41673 22.3158 8.32696 22.4366 9.3114 22.1628C10.1088 21.9514 10.8556 21.5856 11.5086 21.0868C11.6999 20.9371 11.8922 20.7878 12.0852 20.639C12.9932 19.9362 13.9332 19.2096 14.7593 18.3928C16.9055 16.2723 19.0458 14.0752 21.1154 11.9514C21.6814 11.3704 22.2477 10.7898 22.8142 10.2095C23.4455 9.57132 23.9614 8.83112 24.3396 8.02104C25.0151 6.55222 25.1562 5.17894 24.7712 3.82266C24.3686 2.40469 23.4115 1.18934 22.2108 0.571599C21.0669 -0.0172803 19.7182 -0.0715053 18.3119 0.41368C17.102 0.838669 15.9616 1.43645 14.9274 2.18798C12.6838 3.78738 10.9634 5.19489 9.51305 6.61739C7.16376 8.9217 4.79004 11.2794 2.49464 13.5593L2.03371 14.0171C1.16354 14.8813 0.649987 15.7701 0.463431 16.7344C0.358714 17.2762 0.284874 17.8316 0.213647 18.3685C0.181454 18.6106 0.1494 18.8527 0.114494 19.0942C0.110746 19.1201 0.115742 19.1466 0.128716 19.1694C0.141691 19.1924 0.161913 19.2105 0.186296 19.2209C0.186296 19.2529 0.185329 19.2851 0.184857 19.3172C0.182381 19.4697 0.179887 19.6274 0.1905 19.7842C0.198873 19.9087 0.219629 20.0316 0.239558 20.1504C0.252412 20.2271 0.265419 20.3038 0.274971 20.381C0.58464 22.8873 1.95444 24.8604 4.34642 26.2453C5.1264 26.6923 6.01437 26.9226 6.91623 26.9119C7.13376 26.9116 7.35111 26.8999 7.56741 26.877C8.94949 26.7342 10.1791 26.1886 11.1995 25.6739C13.0115 24.7712 14.7072 23.6574 16.2502 22.3559C17.8613 20.9817 19.4592 19.5395 21.0043 18.1458C21.3987 17.7899 21.7932 17.4343 22.188 17.0789C22.7852 16.542 23.3461 15.9833 23.9649 15.361C24.1612 15.1691 24.3221 14.9451 24.4405 14.6987C24.6403 14.2608 24.5938 13.8574 24.309 13.563C23.976 13.2182 23.5631 13.1301 23.1763 13.3217C22.8386 13.4726 22.5231 13.6676 22.238 13.9014C20.6713 15.3027 19.1311 16.7137 17.831 17.9092C16.335 19.2845 14.8581 20.6151 13.2404 21.773C11.8385 22.7764 10.2971 23.8004 8.52497 24.493C6.77261 25.1779 5.26493 24.8464 3.91647 23.4805C2.85951 22.4098 2.29195 21.2041 2.18157 19.7965C2.01648 17.6835 2.44534 16.3023 3.61762 15.1781C5.03826 13.8158 6.45858 12.4071 7.83216 11.0448C8.68334 10.2007 9.56339 9.32774 10.4345 8.47479C11.8804 7.05916 13.5206 5.69275 15.5964 4.17469C16.4705 3.53542 17.6518 2.74416 19.0398 2.29598C19.8146 2.046 20.4116 2.02414 20.9764 2.22478C22.2011 2.66039 23.1943 4.33053 23.0202 5.66121C22.8717 6.7973 22.3727 7.81052 21.495 8.7589C20.9549 9.34254 20.3963 9.91478 19.8732 10.4464C19.3307 10.9977 18.7891 11.5501 18.2483 12.1035C16.7686 13.6152 15.2385 15.1787 13.7007 16.6825C12.8542 17.5105 11.9168 18.2798 11.0105 19.024C10.8321 19.1704 10.6539 19.317 10.4758 19.4638C9.94711 19.9046 9.33154 20.2323 8.668 20.4265C8.00031 20.6202 7.50824 20.4396 7.20505 19.8898C6.81024 19.1734 6.79739 18.5252 7.16567 17.9086C7.90576 16.6689 8.90348 15.6201 9.872 14.6713Z" fill="#F7EEE7"/>
</g>
<defs>
<clipPath id="clip0_1_6299">
<rect width="25" height="27" fill="white"/>
</clipPath>
</defs>
</svg>
