<svg width="27" height="27" viewBox="0 0 27 27" fill="none" xmlns="http://www.w3.org/2000/svg">
<g clip-path="url(#clip0_1_6313)">
<path d="M0.607378 26.9889C0.706857 26.9875 0.804679 26.963 0.893178 26.9171C1.0386 26.8468 1.17583 26.7607 1.30242 26.66C1.54071 26.4658 1.77363 26.2588 1.99893 26.0587L3.46488 24.7568C5.17821 23.2354 6.94991 21.6623 8.68811 20.1101C8.78894 20.0197 8.89223 19.932 8.99575 19.8439C9.37095 19.5242 9.75758 19.1948 10.0489 18.7473C10.1833 18.9223 10.3159 19.096 10.4467 19.2683C10.8157 19.7541 11.1637 20.213 11.5482 20.6549C12.0845 21.2719 12.6583 21.8718 13.2132 22.4522C13.3673 22.6132 13.5211 22.7743 13.6746 22.9357C13.9467 23.2222 14.2946 23.2641 14.6542 23.0537L14.6852 23.0357C14.8154 22.9647 14.9391 22.8824 15.0549 22.7896C17.3216 20.8644 18.2255 18.5571 17.8148 15.7387C18.1159 15.6729 18.4147 15.6081 18.711 15.5441C19.4765 15.3784 20.1996 15.2218 20.9368 15.0566C22.2979 14.7515 23.9077 14.3882 25.5272 14.0084C25.8179 13.944 26.0983 13.8395 26.3605 13.698C26.9507 13.3693 27.1462 12.6776 26.8256 12.0536C25.9517 10.3518 24.829 8.68925 23.2941 6.82162C22.5199 5.87956 21.7132 4.93899 20.9331 4.02923C20.5607 3.59497 20.189 3.16016 19.8179 2.72477C19.6275 2.5003 19.439 2.27368 19.2509 2.04695C18.8666 1.58377 18.4694 1.10577 18.0561 0.654344C17.7018 0.267193 17.3451 0.0844291 16.9946 0.112107C16.6361 0.140011 16.2979 0.38739 15.9915 0.847519C14.9125 2.46763 14.0611 4.18561 13.1145 6.26664C12.8232 6.90628 12.5379 7.5563 12.2617 8.18498C12.1457 8.44859 12.0301 8.71082 11.9152 8.9717C11.6199 8.99825 11.3214 9.02062 11.0324 9.04219C10.341 9.09382 9.62604 9.14736 8.93322 9.26168C7.43694 9.519 6.02306 10.1323 4.80885 11.0508C4.38009 11.3682 4.32083 11.6764 4.59733 12.1497C4.65976 12.2548 4.73097 12.3543 4.81018 12.4472C5.86015 13.7024 6.91122 14.9566 7.96336 16.2099C8.25756 16.5601 8.55288 16.9103 8.85257 17.2645L9.19091 17.6649C9.11025 17.7263 9.03093 17.7856 8.95295 17.8438C8.72149 18.0166 8.5028 18.18 8.29801 18.3634L8.286 18.374C7.1064 19.4312 5.8866 20.5244 4.70723 21.6229C3.5981 22.6559 2.48292 23.72 1.4046 24.7492L0.517747 25.5951C0.366387 25.7301 0.234109 25.8855 0.124618 26.0568C0.0506922 26.167 0.0159787 26.2993 0.0261516 26.4319C0.0363245 26.5646 0.0907836 26.6899 0.180635 26.7874C0.233557 26.8496 0.298968 26.8996 0.372535 26.9344C0.446103 26.9691 0.526159 26.9876 0.607378 26.9889ZM15.6627 18.8497C15.5072 19.6498 14.9208 20.7073 14.1899 21.5144C12.6703 19.8971 11.2864 18.1308 9.94735 16.4217C8.74288 14.8844 7.49819 13.2958 6.15032 11.808C6.78424 11.4132 7.48814 11.1465 8.22293 11.0225C8.99193 10.9043 9.78154 10.8252 10.5452 10.7486C10.8725 10.7157 11.1999 10.683 11.5268 10.647C11.5623 10.6431 11.5904 10.646 11.6411 10.6436C12.8752 10.5864 12.9263 10.5524 13.4631 9.43103C13.7924 8.74304 14.1193 8.05394 14.4439 7.36369C14.9726 6.24381 15.5194 5.08587 16.0732 3.9556C16.3197 3.45322 16.6007 2.97532 16.8984 2.4691C17.0073 2.28405 17.1175 2.0963 17.2271 1.90629C19.5873 4.81472 21.6755 7.76891 23.8845 10.894C24.254 11.4166 24.6248 11.9405 24.997 12.4656C24.8141 12.5121 24.6357 12.5582 24.4602 12.6033C23.9768 12.7275 23.5202 12.8456 23.0598 12.9528L22.4571 13.0932C20.6932 13.5044 18.8693 13.9292 17.0706 14.3231C16.5053 14.4474 16.1924 14.7843 16.114 15.3547C16.0768 15.6258 16.0481 15.9016 16.0203 16.1681C15.997 16.3925 15.9729 16.6247 15.9439 16.8515C15.9246 17.0021 15.9063 17.1528 15.8879 17.3034C15.8258 17.8129 15.7616 18.34 15.6627 18.8492V18.8497Z" fill="#F7EEE7"/>
</g>
<defs>
<clipPath id="clip0_1_6313">
<rect width="27" height="27" fill="white"/>
</clipPath>
</defs>
</svg>
