<svg width="27" height="27" viewBox="0 0 27 27" fill="none" xmlns="http://www.w3.org/2000/svg">
<path d="M0.590107 1.43149C0.68768 1.48882 0.789625 1.53783 0.894895 1.57807C1.12717 1.66391 1.35928 1.75029 1.59122 1.83714C2.24021 2.07913 2.91127 2.32975 3.57764 2.55925C4.4446 2.85791 5.33212 3.14089 6.19045 3.41445L6.53321 3.52371C6.69583 3.5636 6.84268 3.65419 6.95384 3.78316C7.06501 3.91211 7.13511 4.07322 7.1547 4.2447C7.22386 4.6385 7.30264 5.03659 7.37908 5.42134C7.44812 5.76941 7.51951 6.12911 7.58325 6.48368C7.6827 7.03725 7.78409 7.59055 7.88741 8.14363C8.15963 9.61462 8.44109 11.1357 8.66067 12.6394C8.78396 13.4799 8.85792 14.3437 8.9309 15.1793C8.99699 15.9423 9.0654 16.7314 9.17019 17.5036L9.19806 17.7084C9.3317 18.689 9.45808 19.6148 9.44551 20.5867C9.42208 22.4036 10.1225 23.1668 11.9436 23.3087C13.3329 23.4169 14.7314 23.4545 16.1255 23.4545C17.7564 23.4545 19.3804 23.4037 20.976 23.3528C22.2706 23.3117 23.6103 23.2692 24.927 23.2551H24.9596C25.1286 23.2609 25.2978 23.2441 25.4627 23.2048L25.5448 23.1816C25.7957 23.1252 26.0369 23.0294 26.2599 22.8977C26.4177 22.7985 26.5476 22.6581 26.6367 22.4908C26.7257 22.3233 26.7706 22.1348 26.7669 21.9439C26.7581 21.7608 26.703 21.5832 26.6071 21.4291C26.5112 21.2749 26.3778 21.1493 26.2203 21.065C25.8844 20.8857 25.5107 20.7954 25.1327 20.8021C24.134 20.8195 23.1203 20.8504 22.1395 20.8802C20.8597 20.9192 19.5363 20.9592 18.2352 20.9692C16.7751 20.9807 15.2899 20.9476 13.8532 20.915C13.2903 20.9021 12.7272 20.8902 12.1641 20.8792C12.0535 20.8735 11.9434 20.8597 11.8347 20.8379C11.787 20.8298 11.7361 20.8209 11.6805 20.8123L11.2252 18.3867L11.6259 18.3467C11.9761 18.3115 12.2981 18.2792 12.6205 18.2505L14.4896 18.0848C16.8513 17.8747 19.2936 17.6574 21.6962 17.4525C22.6255 17.3731 23.2445 16.9125 23.5887 16.0443L23.696 15.7719C23.9005 15.2188 24.1379 14.679 24.4063 14.1557C25.1337 12.8101 25.6668 11.3589 26.1817 9.95532L26.3146 9.59389C26.6036 8.80961 26.9337 7.76377 26.9216 6.62646C26.9115 5.69012 26.5001 5.23825 25.5875 5.16184C25.4594 5.15127 25.3347 5.1505 25.197 5.15127C24.1712 5.15602 23.1453 5.15974 22.1195 5.16246C19.5383 5.17074 16.8691 5.17941 14.2439 5.21227C13.2133 5.22501 12.1676 5.28571 11.1561 5.34442C10.6673 5.37282 10.1786 5.40127 9.68962 5.42445C9.58346 5.42929 9.47399 5.42797 9.35822 5.42669L9.27511 5.42581C9.24224 5.28352 9.20984 5.14234 9.17796 5.00232C9.08845 4.61044 9.00388 4.24022 8.91043 3.86388C8.66681 2.88194 8.1193 2.27344 7.23693 2.00331C5.90937 1.59716 4.56578 1.16043 3.26707 0.73824C2.63953 0.534467 2.01178 0.331373 1.38384 0.128873C1.2531 0.0882296 1.11821 0.0635081 0.981913 0.0552436C0.681461 0.0352484 0.268086 0.0634214 0.14936 0.547638C0.0584974 0.920416 0.202368 1.20951 0.590107 1.43149ZM9.55881 6.72819C9.69504 6.72157 9.83004 6.71418 9.96294 6.70705C10.3593 6.68578 10.7337 6.66553 11.1124 6.66426C11.9396 6.66197 12.7806 6.66604 13.5939 6.66999C14.2843 6.67356 14.9748 6.67573 15.6652 6.67658C16.8253 6.67573 17.9854 6.67348 19.1457 6.66974C20.7046 6.66558 22.2636 6.66322 23.8229 6.66271C24.1534 6.66271 24.4926 6.6873 24.8518 6.71277C24.9845 6.72245 25.1213 6.73215 25.2641 6.7412C25.2105 6.92943 25.1617 7.11292 25.1138 7.2916C25.0033 7.74859 24.8624 8.19712 24.692 8.63397C24.2359 9.72251 23.7393 10.8161 23.2593 11.8738C23.079 12.2711 22.8992 12.6686 22.7199 13.0664C22.487 13.5849 22.2522 14.1025 21.9977 14.6636L21.6465 15.4381L10.9598 16.4844C10.8002 13.5646 10.3536 10.4557 9.55881 6.72819Z" fill="#F7EEE7"/>
<path d="M22.9687 26.839C23.4398 26.836 23.8906 26.6405 24.2226 26.2952C24.3658 26.1512 24.4799 25.9791 24.5583 25.7891C24.6366 25.5991 24.6775 25.3949 24.6787 25.1885C24.6722 24.3156 23.8625 23.5127 22.9797 23.5039H22.9633C22.5289 23.5028 22.1112 23.6772 21.7994 23.9899C21.4877 24.3027 21.3068 24.729 21.2952 25.1777C21.2911 25.39 21.328 25.601 21.4044 25.7981C21.4805 25.9953 21.5945 26.1747 21.7391 26.3255C21.8996 26.4914 22.0906 26.6222 22.3008 26.7104C22.511 26.7985 22.7361 26.8424 22.963 26.8392L22.9687 26.839Z" fill="#F7EEE7"/>
<path d="M12.8741 26.9638H12.8864C13.302 26.9579 13.6996 26.788 13.9978 26.4887C14.2959 26.1894 14.4717 25.7837 14.4892 25.3547C14.5006 24.4274 13.7026 23.5345 12.8472 23.5176C12.4338 23.5238 12.0394 23.6977 11.749 24.0017C11.4114 24.3309 11.2138 24.7848 11.1992 25.2642C11.2026 25.4822 11.2476 25.6974 11.3318 25.8975C11.4159 26.0976 11.5376 26.2785 11.6897 26.4298C12.0009 26.7622 12.4266 26.9541 12.8741 26.9638Z" fill="#F7EEE7"/>
</svg>
