<svg width="28" height="24" viewBox="0 0 28 24" fill="none" xmlns="http://www.w3.org/2000/svg">
<g clip-path="url(#clip0_1_6319)">
<path d="M23.5718 16.4717C23.2941 16.4063 22.9235 16.4422 22.7354 16.9801C22.4676 17.7445 21.984 18.3631 21.5462 18.8674C20.2995 20.3037 18.6729 21.3126 16.7126 21.8661C15.2315 22.2843 13.4702 22.6569 11.637 22.2478C8.90316 21.6374 6.6781 20.1148 5.02385 17.7214C4.2889 16.658 3.86705 15.6421 3.7342 14.6144C3.49822 12.8648 3.57728 11.0864 3.96752 9.36535C4.06542 8.94224 4.19646 8.51703 4.33646 8.0631C4.35738 7.99558 4.37847 7.92715 4.39972 7.85777C4.49313 8.0358 4.57345 8.18516 4.66378 8.33485L4.68684 8.37264C4.85977 8.67334 5.05254 8.96188 5.26395 9.23623C5.55959 9.60285 5.98407 9.71355 6.32058 9.51183C6.58627 9.35231 6.79451 8.97161 6.5046 8.42365C6.17657 7.8041 5.73743 6.99189 5.24968 6.2031C4.88762 5.61738 4.4348 5.45881 3.7816 5.6894C2.67999 6.07836 1.6236 6.49628 0.735467 6.85339C0.483459 6.95387 0.266585 7.12793 0.112548 7.35345C-0.0181524 7.56035 0.00793792 7.90175 0.10696 8.0983C0.24042 8.36437 0.528874 8.4382 0.878772 8.29596C1.56498 8.01665 2.26218 7.75361 2.97536 7.48651C3.08123 7.44679 3.19473 7.4141 3.30857 7.38306C2.68869 8.83506 2.34612 10.4727 2.26253 12.3805C2.1632 14.6439 2.50254 16.3223 3.36237 17.8225C4.84912 20.4157 7.05883 22.2852 9.93026 23.3793C10.7864 23.7032 11.6866 23.8924 12.5994 23.9406C12.8315 23.9536 13.0677 23.9601 13.3013 23.9601C14.6491 23.953 15.9887 23.748 17.2783 23.3516C19.4667 22.6998 21.2103 21.638 22.6085 20.104C23.2899 19.3567 23.7224 18.6496 23.9691 17.8788C24.0409 17.6773 24.084 17.4664 24.0969 17.2526C24.1105 16.7112 23.819 16.529 23.5718 16.4717Z" fill="#F7EEE7"/>
<path d="M27.8449 11.0728C27.7001 10.8804 27.4492 10.7976 27.1561 10.8457C26.8365 10.8975 26.5353 11.1062 26.3386 11.272C26.0074 11.5513 25.6907 11.8521 25.3556 12.1702L25.3442 12.1806C25.3199 12.2037 25.2954 12.2267 25.2709 12.2501C25.3998 11.1359 25.3891 10.0098 25.239 8.89839C24.9379 6.6122 23.8739 4.49881 22.2237 2.9087C20.5761 1.32832 18.4439 0.361704 16.0574 0.113117C13.6016 -0.142193 11.1398 0.272116 8.74066 1.34591C7.98446 1.6846 7.11157 2.12677 6.37662 2.83849C6.17791 3.04393 6.02028 3.2863 5.91239 3.55227C5.8338 3.73279 5.93563 4.10057 6.13143 4.1914C6.23068 4.22709 6.33645 4.24032 6.44129 4.23024C6.54614 4.22015 6.64755 4.18701 6.73839 4.13305C6.8549 4.06062 6.96384 3.97641 7.06361 3.88175C7.13258 3.81725 7.20598 3.75771 7.28316 3.7036C10.3079 1.70466 13.5351 1.02626 16.8744 1.68635C18.9197 2.09115 20.5887 3.0908 21.8351 4.65732C23.2727 6.46394 23.9384 8.61255 23.8142 11.0434C23.7833 11.4896 23.7295 11.9339 23.6531 12.3744C23.6374 12.4758 23.6217 12.5772 23.6063 12.6786C23.4809 12.5371 23.3521 12.391 23.2306 12.242C22.9676 11.9192 22.7061 11.5951 22.4459 11.2696L22.4301 11.2499C22.2443 11.0183 22.0584 10.7867 21.8686 10.552C21.7868 10.4441 21.6945 10.3446 21.5933 10.2552C21.3234 10.0303 21.0101 10.0142 20.7553 10.212C20.6362 10.3002 20.5533 10.4299 20.5227 10.5762C20.4922 10.7224 20.5161 10.8749 20.5898 11.0044C20.6902 11.2044 20.8081 11.3949 20.9422 11.5734C21.7029 12.5637 22.4498 13.5226 23.0802 14.3299C23.3459 14.67 23.5959 14.8218 23.8909 14.8218C24.0963 14.8128 24.297 14.7558 24.477 14.6551C25.6075 14.0745 26.6321 13.3034 27.5072 12.3749C27.6593 12.2191 27.7841 12.0383 27.8765 11.8403C28.0067 11.5522 27.9951 11.272 27.8449 11.0728Z" fill="#F7EEE7"/>
</g>
<defs>
<clipPath id="clip0_1_6319">
<rect width="28" height="24" fill="white"/>
</clipPath>
</defs>
</svg>
