<svg width="34" height="20" viewBox="0 0 34 20" fill="none" xmlns="http://www.w3.org/2000/svg">
<g clip-path="url(#clip0_352_53)">
<path d="M17.6509 0.0273442C20.7258 0.114412 23.668 0.798656 26.4026 2.23459C28.4118 3.28171 30.2544 4.62847 31.8687 6.22992C32.3487 6.7354 32.8015 7.26674 33.2251 7.82163C33.7481 8.4696 33.8359 9.27053 33.8713 10.0573C33.8661 10.4084 33.7647 10.7512 33.5784 11.0474C31.7967 14.0508 29.4643 16.4518 26.2715 17.9366C21.7554 20.0367 17.1256 20.5207 12.3489 19.0176C8.845 17.9146 5.57096 16.341 2.69002 13.9961C1.87134 13.3296 1.13106 12.5949 0.614525 11.6621C0.41434 11.2746 0.238781 10.8746 0.0889305 10.4645C-0.0876022 10.0206 0.0207966 9.58977 0.252264 9.20751C0.441575 8.91333 0.659408 8.63903 0.902551 8.3887C2.61582 6.5213 4.52594 4.84969 6.59877 3.40375C8.53444 2.05727 10.715 1.11383 13.0138 0.62826C14.534 0.300742 16.0692 -0.0409265 17.6509 0.0273442ZM2.07619 10.2307C2.59347 11.1298 3.37799 11.6807 4.16415 12.226C6.90731 14.1287 9.91375 15.4434 13.117 16.3128C16.4873 17.2277 19.7983 16.9594 23.0795 15.8337C26.3882 14.698 28.9713 12.5656 31.1896 9.91052C31.2534 9.85032 31.2986 9.77264 31.3197 9.68691C31.328 9.5215 31.36 9.29986 31.2724 9.1976C30.2511 8.00512 29.2075 6.83068 27.9021 5.94106C21.8991 1.85219 15.6177 1.60631 9.17477 4.69473C6.65951 5.90029 4.47521 7.65713 2.43417 9.57383C2.25764 9.73834 2.18771 10.0174 2.07546 10.2307H2.07619Z" fill="black"/>
<path d="M21.7821 9.53698C21.7952 10.3865 21.4972 11.2109 20.9456 11.8511C19.8134 13.1722 18.4176 13.9413 16.6319 13.8272C16.0474 13.7996 15.4767 13.6384 14.9625 13.3556C14.4483 13.0727 14.0041 12.6756 13.663 12.194C13.322 11.7124 13.0931 11.1589 12.9935 10.5749C12.8938 9.99091 12.9261 9.39163 13.0878 8.82207C13.2784 8.14952 13.5773 7.51345 13.9724 6.93951C15.7372 4.4347 18.9969 4.83049 20.6068 6.34282C21.4901 7.17274 21.8002 8.23819 21.7821 9.53698ZM17.2509 8.04915C16.4597 8.00644 15.7395 8.41095 15.5675 8.92028C15.3635 9.52494 15.3772 10.1263 15.8112 10.6454C15.9215 10.7777 16.0562 10.887 16.2076 10.9672C16.513 11.1351 16.8591 11.2118 17.2058 11.1884C17.5526 11.165 17.8855 11.0424 18.1661 10.8348C19.1937 10.1379 19.1203 8.86178 18.0216 8.32358C17.7718 8.21297 17.5142 8.12125 17.2509 8.04915Z" fill="black"/>
</g>
<defs>
<clipPath id="clip0_352_53">
<rect width="34" height="20" fill="white"/>
</clipPath>
</defs>
</svg>
